<?xml version="1.0" encoding="utf-8"?>
<!-- Generator: Adobe Illustrator 25.0.0, SVG Export Plug-In . SVG Version: 6.00 Build 0)  -->
<svg version="1.1" id="Glyph" xmlns="http://www.w3.org/2000/svg" xmlns:xlink="http://www.w3.org/1999/xlink" x="0px" y="0px"
	 viewBox="0 0 512 512" style="enable-background:new 0 0 512 512;" xml:space="preserve">
<style type="text/css">
	.st0{fill:url(#SVGID_1_);}
</style>
<linearGradient id="SVGID_1_" gradientUnits="userSpaceOnUse" x1="59.11" y1="244.4161" x2="452.89" y2="244.4161">
	<stop  offset="0" style="stop-color:#A69557"/>
	<stop  offset="0.5823" style="stop-color:#D3A771"/>
	<stop  offset="1" style="stop-color:#F6B585"/>
</linearGradient>
<path class="st0" d="M426.5,146c-4.4,16.8-20.1,65.3-58,87.2c-14.5,8.3-30.6,11.9-46.1,13c0-0.6,0-1.2,0-1.7
	c0-25.2-14.1-47.1-34.8-58.4c8.6-12.9,19.8-25.1,34.2-33.4C359.9,130.7,409.8,141.4,426.5,146L426.5,146z M256,297.6
	c-29.3,0-53.2-23.9-53.2-53.2s23.9-53.2,53.2-53.2s53.2,23.9,53.2,53.2S285.3,297.6,256,297.6z M354.4,73.9
	c2.6,9.6,7.2,30.1,6.6,52.9c-15.1,1.7-30.8,5.8-45.2,14c-0.1-16.6-4.4-32.2-10.5-46.2C324.8,82.7,344.8,76.4,354.4,73.9z M256,47.5
	c12.3,12.2,46.5,50.1,46.5,93.9c0,3-0.2,5.9-0.5,8.8c-11,8.9-19.9,19.6-26.9,30.5c-6.1-1.8-12.5-2.8-19.1-2.8
	c-6.7,0-13.1,1-19.1,2.8c-7.1-10.9-15.9-21.6-26.9-30.5c-0.3-2.9-0.5-5.9-0.5-8.8C209.5,97.6,243.7,59.8,256,47.5L256,47.5z
	 M157.6,73.9c9.6,2.5,29.6,8.8,49.1,20.8c-6.1,13.9-10.4,29.5-10.5,46.2c-14.4-8.2-30.1-12.3-45.2-14
	C150.3,104,154.9,83.5,157.6,73.9z M190,152.6c14.5,8.3,25.6,20.6,34.2,33.4c-16.4,8.9-28.6,24.5-33,43.1c-13,0.7-26.7,3-39.9,8.1
	c-2.7-1.2-5.3-2.5-7.9-4c-37.9-21.9-53.6-70.4-58-87.2C102.2,141.4,152.1,130.7,190,152.6z M59.1,244.4c7-7.1,22.4-21.3,42.5-32.2
	c9,12.3,20.4,23.8,34.7,32.2c-14.3,8.4-25.7,19.9-34.7,32.2C81.5,265.7,66.1,251.5,59.1,244.4z M85.5,342.9
	c4.4-16.8,20.1-65.3,58-87.2c14.4-8.3,30.6-11.9,46.1-13c0,0.6,0,1.2,0,1.7c0,19,8.1,36.2,20.9,48.3c-5.9,11.6-10.8,24.7-13,38.6
	c-2.4,1.7-4.8,3.3-7.4,4.8C152.1,358.1,102.2,347.4,85.5,342.9z M157.6,414.9c-2.6-9.6-7.2-30.1-6.6-52.9c15.1-1.7,30.8-5.8,45.2-14
	c0.1,16.6,4.4,32.2,10.5,46.2C187.2,406.2,167.2,412.4,157.6,414.9z M256,441.3c-12.3-12.2-46.5-50.1-46.5-93.9
	c0-16.7,5-32.5,11.8-46.4c10.1,6.2,22,9.8,34.7,9.8c6.6,0,13.1-1,19.1-2.8c7.1,10.9,15.9,21.7,26.9,30.5c0.3,2.9,0.5,5.9,0.5,8.8
	C302.5,391.2,268.3,429.1,256,441.3L256,441.3z M354.4,414.9c-9.6-2.5-29.6-8.8-49.1-20.8c6.1-13.9,10.4-29.5,10.5-46.2
	c14.4,8.2,30.1,12.3,45.2,14C361.7,384.9,357.1,405.3,354.4,414.9z M322,336.2c-14.4-8.3-25.6-20.6-34.2-33.4
	c16.4-8.9,28.6-24.5,33-43.1c13-0.7,26.7-3,39.9-8.1c2.7,1.2,5.3,2.5,7.9,4c37.9,21.9,53.6,70.4,58,87.2
	C409.8,347.4,359.9,358.1,322,336.2z M410.4,276.6c-9-12.3-20.4-23.8-34.7-32.2c14.3-8.4,25.7-19.9,34.7-32.2
	c20.1,10.9,35.5,25.1,42.5,32.2C445.9,251.5,430.5,265.7,410.4,276.6z"/>
</svg>
